<svg xmlns="http://www.w3.org/2000/svg" viewBox="0 0 1728.26 1200.53"><defs><style>.cls-1,.cls-8{fill:#a6a8ab;}.cls-1{stroke:#fc6;stroke-width:9px;opacity:0.3;}.cls-1,.cls-2,.cls-3,.cls-4,.cls-5,.cls-9{stroke-miterlimit:10;}.cls-2,.cls-3,.cls-4{fill:none;}.cls-2{stroke:#ffda50;stroke-width:4px;opacity:0.3;}.cls-3{stroke:#c1b49a;}.cls-4,.cls-5{stroke:#ec1c24;stroke-width:2px;}.cls-4,.cls-5,.cls-6{fill-rule:evenodd;}.cls-5,.cls-6{fill:#ec1c24;}.cls-7{opacity:0.6;}.cls-9{fill:#4d4d4d;stroke:#4d4d4d;}</style></defs><title>primalpushRAM_logoAsset 4</title><g id="Layer_2" data-name="Layer 2"><g id="ram"><polygon class="cls-1" points="1260.61 506.25 865.9 1191.52 471.2 506.25 1260.61 506.25"/><line class="cls-2" x1="865.05" y1="229.08" x2="469.56" y2="426.43"/><line class="cls-2" x1="1259.77" y1="426.42" x2="865.06" y2="229.07"/><line class="cls-3" x1="1009.32" y1="861.25" x2="963.73" y2="1013.01"/><polygon class="cls-2" points="865.05 1111.7 766.38 1013.02 720.82 861.23 470.35 426.43 683.61 390.88 692.55 426.43 773 426.43 818.32 763.73 785.67 796.38 865.05 1111.7"/><polygon class="cls-2" points="865.06 1111.7 963.73 1013.02 1009.3 861.23 1259.77 426.43 1046.5 390.88 1037.57 426.43 957.11 426.43 911.79 763.73 944.44 796.38 865.06 1111.7"/><path class="cls-3" d="M469.56,426.43a196.83,196.83,0,0,1-137.11-56.17,196.77,196.77,0,0,0,136.16,54.5Z"/><line class="cls-3" x1="510.1" y1="495.42" x2="508.3" y2="492.3"/><line class="cls-3" x1="1196.48" y1="307.7" x2="1193.35" y2="307.7"/><path class="cls-4" d="M820.7,314.41c4.1,16.79-3.62,32.69-12,46.75a154.72,154.72,0,0,1-20,26.47c-16.21,17.24-37.06,31.51-62.88,41.85-4.24,1.7-8.44,3.55-12.88,4.91-12.69,3.91-22.44,3.87-31-7.16-10.67-13.74-29-19.14-48.94-24.68-22.26-6.19-44.78-13.24-66.45-21.22-3-1.09-5.61-2.49-9.55-2.82-23.06-1.91-36.46-11.13-41.74-28.23-1.92-6.25-8.19-11.58-6.55-18.54"/><path class="cls-5" d="M788.53,531c6.72,56.6-17.72,106.91-32.25,159.2-5.87,21.06-13.39,41.67-18.86,62.83-1.79,6.93-3.18,14.62-.58,22.5,3.23,9.84.56,19.24-6.21,27.27"/><path class="cls-5" d="M924.79,497.64c3.8,51.14,18.74,95.8,31,142,5.83,22.06,12,43.86,17.79,65.93a93.89,93.89,0,0,1,3.06,28.95c-.29,6.05,1.5,13.93,3.11,20.44,5.45,22.2,4.16,43.28,3.83,64.31-.17,11.48,1.54,22.53,2.82,33.76.79,7,.59,14.43-1.93,16-8.85,5.49-9.79,23-12.74,37.63"/><path class="cls-5" d="M767.63,942.72c-3,19.3,12,26.37,24.12,35.39,11.53,8.58,25.66,10.88,38.56,16.17,20.17,8.28,26.63,17.3,18.76,36.67-12.7,31.21-3.44,52.53,23.09,69.39"/><path class="cls-5" d="M955.79,897.69c-2.36,8.36,1.48,15.63,5,22.44,11.56,22.47,10.29,33-4.77,53.3-7.92,10.66-18.76,16.9-29.21,23.89-17.15,11.48-31.24,24.88-38.88,45-5.14,13.54-6.69,25.86.34,38.72"/><path class="cls-5" d="M1050.68,662.89c3.89,6.3,1.07,11.36-1.21,17.83-12.46,35.21-28.14,69-43.6,102.89-4.49,9.87-3.48,22.39-14.69,28.85"/><path class="cls-5" d="M872.16,984.54c7.17,10.11,8.9,19.23,4.09,32.48-5.56,15.3-11.55,31.83-7.49,49.58,5.55,24.25,20.31,37,45.22,37"/><path class="cls-5" d="M661.48,637.15c.33,2.2-.46,4.31,1.51,6.52,10.16,11.38,15.6,22.64,16,40.1.51,25.8,11.47,51.11,21.33,75.54,6.42,15.93,14.59,31.34,27.3,43.34,6.37,6,7.63,14.26,9,21.17,4.74,24.47,14.49,47.47,19.34,72,2.83,14.31,6.31,32.87,14.62,42.57,13.93,16.23,33.22,31,58.24,30.05,4.82-.18,9.65,0,14.48,0"/><path class="cls-5" d="M769.24,585.69c-4.67-34.22-21.24-61.13-49.9-80.34A59.86,59.86,0,0,0,676,495.63"/><path class="cls-5" d="M1049.07,495.63c-26.57-5.23-45.84,9.08-62.35,26.08-14,14.39-25.83,31.41-27.46,52.74-.27,3.58-3.75,4.81-3.47,8"/><path class="cls-5" d="M513.52,367c1.29,29.18,8.43,57.08,15.13,85.46,8.21,34.74,38.34,47,59.1,68.69,15.41,16.12,29,33.2,38,53.46,2.4,5.4,8.57,14.77-4.48,17.54"/><path class="cls-5" d="M1211.51,367a224.08,224.08,0,0,1-19.31,94.88c-1.65,3.74-5.46,6.29-4.93,11.27.9,8.3-3.43,12.19-10.9,16.49-19.59,11.28-35.94,26.88-50.1,44.62"/><path class="cls-5" d="M687.21,523c10.32,2.54,14.39,12.13,18.9,19.54,11.15,18.27,27,30.89,43.64,43.43,6,4.53,13.71,9.32,13.06,19"/><path class="cls-5" d="M1185.77,381.44c.65,10-4.6,16.27-12.84,20.94-35.29,19.95-67.79,43.45-95,73.87-11.21,12.55-13.25,22.58-4.75,30.63"/><path class="cls-5" d="M1065.15,579.26c-4.22,1.32-9.08,2.14-11.17,6.47-7.91,16.51-21.3,15.06-35.46,11.2-13.42-3.66-26.81-7.49-40.21-11.24"/><path class="cls-5" d="M542.46,384.66c-1.27,10.4,5.12,16.73,13,20.74a314.94,314.94,0,0,1,91.7,70.83c.71.8,3.11.1,4.89.1,4.51-3.77,1-8.57,1.43-12.87"/><path class="cls-5" d="M904.33,841.4c15.17-.23,25.83-10.89,25.73-25.73C930,805.18,922.14,799,907.54,798c-4.27-.26-8.57,0-12.86,0"/><path class="cls-5" d="M830.35,798c-4.83,0-9.71-.49-14.46.11-9.3,1.18-19,3.23-20.69,14.4-1.54,10.41,4.5,18.31,12.73,23.94,3.68,2.51,8.48,3.36,12.77,5"/><path class="cls-5" d="M960.61,934.68c-21.46,22.48-46.29,37.07-78.79,33.78"/><path class="cls-5" d="M664.7,592.12c-7.09,14.2,7.23,22.4,10.69,33.45,4.09,13.11,12.72,26.45,26.3,34.1"/><path class="cls-5" d="M756.37,883.22c19.38,2.58,32.9,15.31,46.57,27.42,16.7,14.8,33.68,28,57.89,19,2.68-1,3.9-1.08,6.58,0,23.66,9.61,38.57-5.37,54.81-18.89,15.39-12.81,30.26-26.85,49.66-34"/><path class="cls-5" d="M682.39,672.54c15.37,6.56,21.49,21.63,30.34,33.93,7.18,10,11.88,21.74,22.73,28.79"/><path class="cls-5" d="M1066.76,637.15c-20,28-45.63,51.76-62.72,82"/><path class="cls-4" d="M1000.83,571.22c19.19,17,31.31,17,53.07,0"/><path class="cls-5" d="M714.55,672.54c7.93,18,17.12,35.7,16.08,56.29"/><path class="cls-5" d="M821.5,833.37c-2.64,25.87,17.57,34.24,34.61,45,3,1.91,6.4,3.26,9.62,4.87"/><path class="cls-5" d="M1070,542.27c-4.86-6.22,3-14.89-4.72-21-12.81-10.15-28.12-5.72-40.23,13-6.9,10.68-13.26,21.61-22.53,30.58s-22.73,12.87-30.8,23.93c-4.42,6.06-10.74,10.75-9.47,19.42"/><path class="cls-5" d="M901.92,833.37c7.28,22.33-9.63,32.78-23.76,41.08C866,881.58,865.65,890,865.67,900.9c0,8.61,1.35,17.31-1.55,25.74"/><path class="cls-5" d="M1123.05,457c-16.6,10.49-28.24,25.55-38.59,41.81"/><path class="cls-5" d="M602,457c18.72,9.54,26.22,30.72,43.44,41.8,2.6,1.68,1.27,4.25,1.59,6.45"/><path class="cls-5" d="M682.39,514.92c1.58,3,4.79,5.16,1.75,9.76-8.85,13.35-6.83,27.56-1.75,41.71"/><path class="cls-5" d="M1007.26,679c-1.88,14.62-16.14,26.46-8.77,43.74,1.35,3.18-6.78,10.41-10.53,15.76"/><path class="cls-5" d="M1044.25,523c6.06,12.87,7.14,26.33,4.82,40.21"/><path class="cls-5" d="M658.26,582.47c14.9,10.75,29.93,21,49.86,14.48"/><path class="cls-5" d="M637.36,540.66c1.69,11.17,5.22,20.37,19.3,19.35,7.08-.51,10.4,5.47,14.4,9.67,13.38,14,21.26,19.22,43.49,9.58"/><path class="cls-4" d="M1124.66,542.27c-11.45,8.42-20.88,18.75-25.43,32.26-2,5.79-8.54,14.82,4.52,17.59"/><path class="cls-5" d="M1132.71,479.54c-12.19,7.15-26.3,12.44-26,30.57,0,2.64-4,5.35-6.13,8"/><path class="cls-5" d="M680.78,511.71c-1.71-1.93-4.37-5-6.28-3-11,11-25.94,20.3-19.65,40.1.88,2.77-.87,6.38-1.41,9.59"/><path class="cls-5" d="M769.24,920.21c13.9-.67,15.47,15.11,25.73,19.3"/><path class="cls-5" d="M598.75,482.76c7.42,7.07,18.77,9.89,22.53,20.91"/><path class="cls-5" d="M737.07,584.08c-6.91,7.58-16.62,8.74-25.73,11.26"/><path class="cls-5" d="M1063.55,561.57c5-10.49,11.84-.56,18-1.66-.62,5.43-1.25,10.78-1.87,16.13"/><path class="cls-5" d="M1060.33,603.38c-2.61,3.49-6.4,6.11-6.5,11.26-.21,11.85-5.94,21.12-14.41,29"/><path class="cls-4" d="M1074.81,460.24c-3.81,6-6.14,12.09-.8,18.5"/><path class="cls-5" d="M602,498.84c6.18,1.38,9,12,17.7,6.44"/><path class="cls-5" d="M1074.81,540.66c-1.62,4.71-6.66,8.65-3.22,14.48"/><path class="cls-5" d="M1123.05,498.84c-4.27,3.27-9,6.84-14.38,4.61-6.33-2.64-9,.08-11.35,5"/><path class="cls-5" d="M1090.89,547.09c-7.49-.79-2.73,8.64-8,9.65"/><path class="cls-5" d="M817.48,907.34H804.62"/><path class="cls-5" d="M920.41,907.34H907.55"/><path class="cls-4" d="M1095.71,593.73c-3.21,6.44-5.52,13.59-9.89,19.11-4.89,6.18-.8,13.6-5.61,21.1h-11.84"/><path class="cls-6" d="M561.12,307.06c25.79-18.28,50.6-39.07,69-71.85.4-.68,1.35-.74,2.06-1.11,1.72,10.87-6.72,37.84-13.32,47.17-17.15,24.32-38.45,39.51-59.48,55.22-6.91,5.16-9,15.43-7.59,21.88,1.26,5.84,9,11.75,14.18,12.28,12.7,1.32,19.94-4.76,28.87-12,7.58-6.18,17.43-9,24.78-15.36,7.71-6.73,11-13.15,17-21.94,7.46-11,11.66-18.05,16.19-30.84,9.14-25.8,27.69-57.24,3.86-81.83-19-19.62-37.42-40.48-57-58.87-21.56-20.26-43.62-39.69-66.41-56.95A606.18,606.18,0,0,0,467.68,50.1c-40.71-23.24-81.5-21.58-122.17,2-24.14,14-47.52,30.08-67.9,53-16.91,19.05-32.32,40.36-43.08,68.18-10.3,26.62-12.06,53-6.4,81.61,1.58,8,1.45,16.6,2.33,27.66,11.66-27.89,12.69-56.4,12.62-85.29l2.44-.14c1.65,5.53,3,11.3,5.06,16.49,1.07,2.71,3.42,4.38,5.19,6.53,1.29-3.14,3.28-6.08,3.74-9.45,2.18-16.38,3.86-32.92,6-49.33.38-3,1.93-5.62,4.89-8.14,1.12,17,2.25,33.94,3.44,52l14.66-4.78c5.94-30.06,8.71-60.08,18.61-86.83v40.67c0,9.35-.05,18.7,0,28,.17,16,6.38,23.08,17.21,18,2.89-1.34,5.45-7.56,6.61-12.3,6.15-25.27,15.57-47.89,28.42-67.06,9-13.39,19.64-24.49,30.32-35.42C376,127.05,349.73,158.16,345,206.56l28,11.89C376.7,207,378.85,194,384.25,185c20.5-34.21,43.16-65.08,75.15-78.44-6.81,10-13.57,20-20.44,29.92-10,14.45-20.23,28.69-30.25,43.17-4,5.8-8.83,11.21-11.34,18.2-3,8.32-4.09,18.1-5.54,27.39-.23,1.44,1.71,4.45,3.1,5.4,8.73,6,17.53,11.88,26.47,17.24,1.38.83,5.05-.71,5.2-1.84,2.39-16.91,13.81-21.73,21.13-31.73,9.95-13.56,20.95-25.6,31.61-38.08,11.65-13.63,23.44-27,36.42-41.95-1,20.29-9.33,32.67-16.41,44.76-9.42,16.09-20.68,30.1-31.61,44.28-5.94,7.7-13.15,13.43-19.22,21a39.1,39.1,0,0,0-7,14.93c-.38,1.58,4.31,6.25,7.09,8.5,10,8.11,20.17,15.77,30.26,23.6.5-.3,1.34-.52,1.37-.88,2.06-23,17.69-22,27.46-31.43,11-10.58,22.2-20.85,32.44-32.77,9.66-11.26,18.15-24.53,27.25-36.77,1.26-1.69,3.09-2.5,5.42-4.31-.14,17.86-6.79,30.85-13.4,42.63a156.53,156.53,0,0,1-42.82,49.41c-3.93,2.93-8.47,4.64-11.88,8.46-3.67,4.1-6.54,9.8-9.28,15.29-.65,1.28.06,5.68,1.09,6.64,12.79,12.13,25.77,23.89,38.72,35.71.16.15.49-.1,2.46-.56C538,321.38,549.57,315.24,561.12,307.06Z"/><path class="cls-6" d="M153.88,612.05c4.48,13.17,7.76,27.81,14,39.25,4,7.38,12.29,10.07,19.94,15.81V637.24c.65-.67,1.32-1.33,2-2,4.53,35.08,19.94,52.36,45,56.61-1-7.47-2.23-14.67-2.72-22a65,65,0,0,1,1.59-20.48c6,14.78,11.75,29.72,18,44.24,1.46,3.37,4.36,6.76,7,7.63,17.54,5.76,35.31,6.2,53.79,3.54-11.22-9.36-22.44-16.95-32.16-27.36s-16.21-25.5-18.87-40.27c15.81,13.79,32.12,28.94,49.1,42.41,8.14,6.47,17.42,10.3,26.43,14.22,2.87,1.26,6.84,0,9.74-1.87a145.55,145.55,0,0,0,22.82-18.46c-31.86-11.94-60.83-28.91-78.69-72.18,6,5,11.51,9.49,16.91,14.23,22.14,19.39,46.27,31.16,71.59,39.17,6.57,2.06,9.44-3.07,12.57-7.65,4.45-6.52,7.9-14.42,12.35-22.79-33.78-8.2-67.36-14.92-93.71-43,31.2,6.46,63.89,13.07,96.55,20.15,5.54,1.19,8.27-.68,9.48-8.67,1.68-11.27,4-22.35,6.27-35-34.08-4-68.09.24-99.61-20.71h99.9c-.69-13-1.33-24.72-2-37l-98.45-6.88c-.07-1-.15-2.07-.22-3.11,7.7-2,15.36-4.39,23.1-5.88a235.74,235.74,0,0,1,23.6-3c8.16-.74,16.33-1.17,24.49-1.4,7.83-.24,15.65-.06,25-.06-3.35-12.46-6.25-23.3-9.47-35.29H322.68c4.12-8,10.41-12.32,38-17.52,13.91-2.62,28.27-.46,43.21-.46-4-14.45-7.24-27.14-11.21-39.36-.64-2-4.5-2.51-6.89-2.62-26.12-1.28-52,.14-77.66,17.06,4.28-15.83,12.65-22.4,21.21-25.05,15.57-4.81,31.57-6.78,47.4-9.75,2.81-.53,5.71-.08,7.89-.08-.78-18.72-1.53-36.91-2.36-56.92-15.1-.68-32.18.38-48.66,8.69-25.88,13.07-36.65,37-36,73.57.66,34.29,3.85,68.49,5.12,102.8a337,337,0,0,1-1.29,48c-4,37.28-22.49,56.4-45.73,67.58-31.11,14.95-61,6-89.42-13.76-20.88-14.51-40.7-32.07-61.17-47.8-6-4.61-12.59-7.62-18.9-11.37-.65,1.07-1.29,2.14-1.93,3.22.82,4,1,8.51,2.55,11.79,15.94,33.82,37.88,58.81,60.89,82.16.77.79,2,.7,3.61,1.2Z"/><path class="cls-6" d="M276.74,372.76c.69-12.06,2-22.11,1.49-32-.2-4-3.86-9-6.8-11.07-11.26-7.92-15.18-22.94-19.35-38.27l31.16,25,14.1-22c-7.56-15.76-14.65-30.57-21.74-45.37.69-.84,1.38-1.67,2.08-2.5q10.5,9.75,21,19.52c1.76,1.64,3.47,3.39,5.22,5.05,11.27,10.62,22.74,6.39,35.46,1.19C333,262.6,327.2,253.9,321.45,245.2c.34-.95.69-1.9,1-2.85C349,264.59,377.05,278.07,409,274.77c-9.67-6.53-18.66-13.16-28-18.75-23-13.86-46.54-25.6-71.92-27.17C295,228,281,229.63,269,241c-6.13,5.82-12.34,13.35-16,22.2-9.61,23.57-12.35,50-9,76.56A514.23,514.23,0,0,0,266.68,440c8.05,23.9,18.16,46.4,19.93,73.77l2.4-.56c-1.54-23.12-2.75-46.3-4.73-69.35-1.23-14.26-4.35-28.24-5.23-42.53-.54-8.88-3.94-13-8.54-15.43-10.1-5.3-13.63-18.26-17.9-30.82Z"/><g class="cls-7"><path class="cls-8" d="M448.16,995.2C200.06,989,0,774.53,0,511.87S200.06,34.78,448.16,28.55C214.91,35.16,27.63,249,27.63,511.87S214.91,988.58,448.16,995.2Z"/><path class="cls-8" d="M448.16,995.2c3.73.11,7.42.14,11.15.14"/><path class="cls-8" d="M448.16,28.55c3.73-.12,7.42-.15,11.15-.15"/></g><g class="cls-7"><path class="cls-8" d="M1280.1,990.4c248.1-6.23,448.16-220.66,448.16-483.33S1528.2,30,1280.1,23.75c233.25,6.61,420.54,220.47,420.54,483.32S1513.35,983.79,1280.1,990.4Z"/><path class="cls-8" d="M1280.1,990.4c-3.72.11-7.41.15-11.15.15"/><path class="cls-8" d="M1280.1,23.75c-3.72-.11-7.41-.15-11.15-.15"/></g><path class="cls-6" d="M1200.33,346.82c2,.47,2.3.71,2.46.56,13-11.87,25.93-23.68,38.72-35.85,1-1,1.75-5.38,1.1-6.68-2.76-5.5-5.62-11.23-9.3-15.35-3.4-3.83-8-5.55-11.88-8.49a157.15,157.15,0,0,1-42.81-49.62c-6.61-11.83-13.26-24.88-13.4-42.81,2.33,1.82,4.17,2.64,5.42,4.33,9.1,12.28,17.59,25.62,27.26,36.92,10.23,12,21.45,22.28,32.43,32.91,9.77,9.46,25.4,8.44,27.46,31.56,0,.37.88.58,1.37.89,10.1-7.87,20.26-15.56,30.26-23.71,2.78-2.25,7.46-7,7.09-8.53a39.42,39.42,0,0,0-7-15c-6.07-7.57-13.27-13.31-19.22-21-10.93-14.24-22.18-28.3-31.61-44.46-7.07-12.15-15.36-24.58-16.4-44.95,13,15,24.76,28.44,36.4,42.12,10.67,12.53,21.67,24.62,31.61,38.24,7.33,10.05,18.76,14.88,21.14,31.86.15,1.14,3.82,2.69,5.21,1.85,8.93-5.38,17.73-11.25,26.46-17.3,1.39-1,3.33-4,3.11-5.43-1.46-9.33-2.55-19.15-5.55-27.5-2.51-7-7.32-12.46-11.34-18.28-10-14.55-20.2-28.84-30.25-43.35-6.87-9.93-13.63-20-20.44-30,32,13.42,54.65,44.42,75.16,78.77,5.39,9,7.54,22,11.31,33.56L1393.08,210c-4.74-48.6-31-79.83-44.69-121.42,10.69,11,21.35,22.12,30.32,35.56,12.85,19.25,22.27,42,28.42,67.34,1.16,4.76,3.72,11,6.61,12.35,10.83,5.06,17-2,17.2-18.11.09-9.38,0-18.78,0-28.16V116.75c9.9,26.86,12.67,57,18.61,87.2l14.67,4.79c1.19-18.15,2.32-35.19,3.43-52.23,3,2.52,4.51,5.19,4.89,8.17,2.11,16.48,3.78,33.09,6,49.54.46,3.37,2.46,6.34,3.75,9.48,1.77-2.15,4.11-3.83,5.19-6.55,2.07-5.21,3.41-11,5-16.57l2.45.15c-.07,29,1,57.64,12.62,85.65.88-11.11.75-19.79,2.33-27.78,5.66-28.7,3.9-55.21-6.4-82-10.77-27.94-26.17-49.33-43.07-68.47-20.39-23.06-43.77-39.2-67.91-53.26-40.67-23.67-81.47-25.34-122.17-2a607,607,0,0,0-65.62,42.89c-22.79,17.34-44.85,36.84-66.4,57.18-19.58,18.48-38,39.42-57,59.13-23.83,24.69-5.28,56.26,3.86,82.17,4.54,12.85,8.73,19.93,16.19,31,6,8.84,9.28,15.28,17,22,7.35,6.45,17.2,9.22,24.78,15.43,8.93,7.32,16.17,13.42,28.87,12.1,5.17-.54,12.91-6.47,14.18-12.33,1.39-6.48-.69-16.79-7.59-22-21-15.78-42.33-31-59.48-55.46-6.6-9.37-15-36.44-13.31-47.37.7.37,1.65.44,2,1.13,18.45,32.9,43.26,53.79,69,72.13C1188.49,319.17,1200,325.34,1200.33,346.82Z"/><path class="cls-6" d="M1586.68,641.08c1.61-.5,2.84-.4,3.62-1.21,23-23.44,44.93-48.54,60.88-82.5,1.54-3.3,1.74-7.87,2.55-11.84l-1.93-3.23c-6.32,3.76-12.91,6.78-18.9,11.41-20.47,15.8-40.29,33.43-61.17,48-28.38,19.82-58.31,28.83-89.42,13.81-23.24-11.22-41.77-30.42-45.73-67.86a342.86,342.86,0,0,1-1.3-48.21c1.29-34.46,4.47-68.79,5.13-103.24.71-36.75-10.06-60.75-36-73.87-16.48-8.35-33.56-9.41-48.65-8.73-.84,20.1-1.59,38.37-2.36,57.16,2.16,0,5.07-.45,7.88.08,15.83,3,31.83,5,47.4,9.8,8.56,2.66,16.94,9.25,21.21,25.15-25.66-17-51.54-18.43-77.65-17.14-2.39.11-6.26.64-6.9,2.64-4,12.27-7.2,25-11.21,39.52,14.93,0,29.3-2.17,43.21.46,27.58,5.22,33.88,9.61,38,17.6h-86.56c-3.21,12-6.12,22.92-9.46,35.44,9.38,0,17.21-.19,25,.05,8.17.24,16.34.67,24.51,1.41,7.87.72,15.76,1.54,23.58,3s15.41,3.91,23.11,5.91c-.07,1-.14,2.09-.22,3.12l-98.45,6.91-2,37.14h99.9c-31.51,21-65.52,16.82-99.59,20.8,2.29,12.66,4.58,23.79,6.26,35.11,1.2,8,3.94,9.91,9.48,8.7,32.66-7.1,65.35-13.74,96.55-20.23-26.35,28.21-59.93,35-93.7,43.19,4.44,8.41,7.89,16.33,12.34,22.89,3.13,4.59,6,9.74,12.57,7.67,25.31-8,49.45-19.85,71.6-39.33,5.39-4.76,10.91-9.24,16.9-14.29-17.86,43.45-46.83,60.5-78.68,72.48a145.31,145.31,0,0,0,22.81,18.55c2.89,1.88,6.86,3.14,9.74,1.88,9-3.94,18.29-7.79,26.44-14.29,17-13.53,33.28-28.74,49.08-42.58-2.66,14.83-9,29.87-18.86,40.43s-20.94,18.08-32.16,27.48c18.48,2.67,36.25,2.24,53.79-3.56,2.64-.88,5.54-4.27,7-7.65,6.27-14.58,12.06-29.59,18-44.44a65.64,65.64,0,0,1,1.59,20.58c-.49,7.33-1.76,14.56-2.72,22.07,25.07-4.27,40.48-21.63,45-56.85l2,2v30c7.64-5.77,15.94-8.47,19.94-15.88,6.21-11.49,9.49-26.18,14-39.41C1584.93,624.38,1585.76,632.29,1586.68,641.08Z"/><path class="cls-6" d="M1485.45,359.14c-4.28,12.62-7.8,25.64-17.91,30.95-4.58,2.42-8,6.58-8.54,15.49-.86,14.35-4,28.39-5.21,42.72-2,23.14-3.2,46.41-4.74,69.63l2.4.57c1.77-27.49,11.88-50.08,19.93-74.08A519.17,519.17,0,0,0,1494,343.84c3.32-26.71.59-53.21-9-76.88-3.62-8.89-9.82-16.46-16-22.29-12-11.46-26-13.13-40.16-12.24C1403.52,234,1380,245.79,1357,259.71c-9.3,5.62-18.28,12.27-28,18.83,32,3.31,60.07-10.23,86.56-32.55.35.95.7,1.9,1,2.86-5.75,8.73-11.5,17.47-17.93,27.26,12.73,5.22,24.2,9.46,35.47-1.2,1.75-1.66,3.46-3.42,5.22-5.07q10.5-9.82,21-19.6l2.08,2.51c-7.1,14.86-14.19,29.73-21.75,45.56l14.1,22.1L1486,295.29c-4.17,15.4-8.09,30.48-19.35,38.43-3,2.07-6.61,7.11-6.8,11.11-.51,9.9.8,20,1.49,32.11Z"/><path class="cls-9" d="M1432.47,64.69A249.77,249.77,0,0,0,1275.57.5c112.81,5.74,202.54,99,202.54,213.23,0,117.93-95.61,213.51-213.5,213.51l-41.06,71.26a250.29,250.29,0,0,0,41.06,3.38c138.52,0,250.81-112.29,250.81-250.8a250.22,250.22,0,0,0-83-186.39"/><path class="cls-9" d="M304.73,64.69A249.74,249.74,0,0,1,461.64.5C348.84,6.24,259.1,99.5,259.1,213.73c0,117.93,95.61,213.51,213.5,213.51l41.06,71.26a250.38,250.38,0,0,1-41.06,3.38c-138.52,0-250.8-112.29-250.8-250.8A250.24,250.24,0,0,1,304.73,64.69"/></g></g></svg>